<svg width="20" height="24" viewBox="0 0 20 24" fill="none" xmlns="http://www.w3.org/2000/svg">
<path d="M15.0398 12.96C14.8798 12.96 14.7198 13.12 14.7198 13.28V18.24H2.87985V6.64H7.91985C8.07985 6.64 8.23985 6.48 8.23985 6.32C8.23985 6.16 8.07985 6 7.91985 6H2.55985C2.39985 6 2.23985 6.16 2.23985 6.32V18.56C2.23985 18.72 2.39985 18.88 2.55985 18.88H15.0398C15.1998 18.88 15.3598 18.72 15.3598 18.56V13.28C15.3598 13.12 15.2798 12.96 15.0398 12.96Z" fill="#ffffff"/>
<path d="M16.6395 4.24H11.2795C11.1195 4.24 10.9595 4.4 10.9595 4.56C10.9595 4.72 11.1195 4.88 11.2795 4.88H15.8395L6.63953 14.08C6.47953 14.24 6.47953 14.4 6.63953 14.56C6.71953 14.64 6.79953 14.64 6.87953 14.64C6.95953 14.64 7.03953 14.64 7.11953 14.56L16.3195 5.44V10C16.3195 10.16 16.4795 10.32 16.6395 10.32C16.7995 10.32 16.9595 10.16 16.9595 10V4.64C16.9595 4.4 16.7995 4.24 16.6395 4.24Z" fill="#ffffff"/>
</svg>
