<svg fill="none" height="80" viewBox="0 0 80 80" width="80" xmlns="http://www.w3.org/2000/svg" xmlns:xlink="http://www.w3.org/1999/xlink"><clipPath id="a"><path d="m6 10h66v60h-66z"/></clipPath><g clip-path="url(#a)" fill="#000"><path d="m21.1376 27.0558h-14.22934l-.90826.9137v26.4975l.90826.9137h14.22934l18.4679 14.6193.9083-.9137v-58.1726l-.9083-.9137z"/><path d="m56.8624 39.8477c0-6.0914-3.0276-11.5736-7.8716-14.9238l-.9082.9137v28.0203l.9082.9137c4.844-3.0457 7.8716-8.5279 7.8716-14.9239z"/><path d="m48.0826 10-.9083.9137v6.3959l.9083.9138c9.3853 3.0456 16.3486 11.5736 16.3486 21.9289 0 10.6599-6.9633 19.1878-16.3486 22.2335l-.9083.9137v6.3959l.9083.9137c13.6238-3.3502 23.9174-15.2284 23.9174-30.1522 0-15.2285-10.2936-27.1066-23.9174-30.4569z"/></g></svg>