<svg fill="none" height="80" viewBox="0 0 80 80" width="80" xmlns="http://www.w3.org/2000/svg" xmlns:xlink="http://www.w3.org/1999/xlink"><clipPath id="a"><path d="m6 10h68v60h-68z"/></clipPath><g clip-path="url(#a)" fill="#000"><path d="m49.3004 25.2284-.9148.9137v4.8731l8.8431 8.8325c0-6.3959-3.3543-11.5736-7.9283-14.6193z"/><path d="m18.5022 10h-1.2197l-3.3542 3.3503v1.2182l10.0627 10.0508-2.7444 2.4365h-14.3318l-.9148.9137v26.8021l.9148.9137h14.3318l18.6009 14.6193.9148-.9137v-27.7158l7.6233 7.6142v4.8731l.9148.9137c.9148-.6091 1.8296-1.2182 2.7444-2.1319l4.879 4.8731c-2.4395 2.1319-5.1839 3.6548-8.2332 4.8731l-.9148.9137v6.3959l.9148.9137c5.1838-1.2183 10.0628-3.6548 13.722-7.3096l7.3183 7.3096h1.2198l3.3542-3.3502v-1.2183z"/><path d="m64.852 39.8477c0 2.132-.3049 4.264-.9147 6.396l6.0986 6.0913c1.5247-3.6548 2.4395-7.9187 2.4395-12.1827 0-14.6193-10.3677-26.802-24.0897-29.8477l-.9148.9137v6.3959l.9148.9137c9.4529 2.4366 16.4663 10.9645 16.4663 21.3198z"/><path d="m40.7623 23.0964v-12.1827l-.9148-.9137-6.4036 5.7868z"/></g></svg>