<svg fill="none" height="20" viewBox="0 0 20 20" width="20" xmlns="http://www.w3.org/2000/svg"><g fill="#212121"><path d="m5.66634 20c1.28867 0 2.33333-1.0447 2.33333-2.3333 0-1.2887-1.04466-2.3334-2.33333-2.3334-1.28866 0-2.33333 1.0447-2.33333 2.3334 0 1.2886 1.04467 2.3333 2.33333 2.3333z"/><path d="m17.6663 20c1.2887 0 2.3334-1.0447 2.3334-2.3333 0-1.2887-1.0447-2.3334-2.3334-2.3334-1.2886 0-2.3333 1.0447-2.3333 2.3334 0 1.2886 1.0447 2.3333 2.3333 2.3333z"/><path d="m5 14h13.3333c.0808 0 .1588-.0294.2196-.0826.0607-.0532.1001-.1267.1108-.2067l1.3333-10.00003c.0063-.04707.0024-.09493-.0113-.14039-.0138-.04545-.037-.08745-.0683-.12318-.0313-.03572-.0698-.06436-.1131-.08398-.0432-.01962-.0902-.02977-.1376-.02979h-14.99503l-.34367-2.74933c-.02015-.161208-.09846-.309512-.22024-.417049-.12178-.1075368-.27863-.16690515-.44109-.166951h-3.000003c-.176811 0-.346381.0702379-.471405.195262-.1250241.125024-.195262.294594-.195262.471405s.0702379.346383.195262.471403c.125024.12503.294594.19526.471405.19526h2.411333l1.59133 12.37467c.01008.0806.04923.1548.11012.2085.06089.0538.13932.0835.22055.0835z"/></g></svg>