<svg fill="none" height="20" viewBox="0 0 20 20" width="20" xmlns="http://www.w3.org/2000/svg"><g stroke="#000"><path d="m7.49967 17.6667c0 1.0125-.82081 1.8333-1.83333 1.8333s-1.83333-.8208-1.83333-1.8333.82081-1.8334 1.83333-1.8334 1.83333.8209 1.83333 1.8334z"/><path d="m19.4997 17.6667c0 1.0125-.8208 1.8333-1.8334 1.8333-1.0125 0-1.8333-.8208-1.8333-1.8333s.8208-1.8334 1.8333-1.8334c1.0126 0 1.8334.8209 1.8334 1.8334z"/><path d="m19.997 3.71067c.0063-.04707.0024-.09493-.0113-.14039l-.319.09635m.3303.04404-.3303-.04404m.3303.04404-.3303-.04399m.3303.04399-.3303-.04399m0-.00005v-.00004-.00011-.33315zm0 0v.00005m0-.00005v.00005m0 0-.0001-.00002zm-14.99503.16665h14.80453l-1.2889 9.66667h-13.0406l-1.57278-12.23044-.0561-.436227h-.43982-2.411333c-.044203 0-.086595-.017559-.117851-.048815-.031257-.031256-.048816-.073649-.048816-.117851 0-.044203.01756-.086595.048816-.117851.031256-.031257.073648-.048816.117851-.048816h2.999863.00006.00008c.04056.000046.07972.014885.11013.041737.03044.026886.05002.063962.05506.104262v.000018l.34367 2.749333.05475.43798zm13.49633 9.81137c.0001-.0002.0001-.0004.0001-.0006v.0005z"/></g></svg>