<svg fill="none" height="80" viewBox="0 0 80 80" width="80" xmlns="http://www.w3.org/2000/svg" xmlns:xlink="http://www.w3.org/1999/xlink"><clipPath id="a"><path d="m0 0h79.84v79.86h-79.84z"/></clipPath><g clip-path="url(#a)"><path d="m63.35 57.57c1.92-2.43 3.53-5.12 4.82-8.07 1.89-4.32 2.83-8.95 2.83-13.9 0-4.88-.95-9.49-2.83-13.81-1.89-4.32-4.45-8.09-7.67-11.32-3.22-3.22-6.99-5.78-11.29-7.65-4.31-1.88-8.88-2.82-13.71-2.82s-9.4.92-13.71 2.77-8.07 4.38-11.29 7.61-5.78 7-7.67 11.32c-1.889998 4.32-2.83 8.95-2.83 13.9s.940002 9.58 2.83 13.9c1.89 4.32 4.43 8.08 7.62 11.27s6.94 5.7 11.24 7.51 8.87 2.72 13.71 2.72c4.83 0 9.42-.91 13.75-2.72 3.08-1.29 5.88-2.94 8.4-4.93l16.51 16.51h1.33l4.45-4.45v-1.33zm-17.48 3.15c-3.25 1.47-6.74 2.21-10.45 2.21-3.66 0-7.11-.73-10.36-2.21-3.25-1.47-6.09-3.46-8.5-5.96-2.42-2.5-4.34-5.42-5.76-8.73-1.43-3.32-2.14-6.82-2.14-10.52 0-3.69.7-7.2 2.09-10.52s3.3-6.21 5.71-8.69c2.42-2.47 5.25-4.44 8.5-5.92 3.25-1.47 6.74-2.21 10.45-2.21 3.72 0 7.22.74 10.5 2.21s6.13 3.44 8.55 5.92c2.42 2.47 4.32 5.37 5.72 8.69 1.39 3.32 2.09 6.82 2.09 10.52 0 3.69-.71 7.2-2.14 10.52s-3.35 6.23-5.76 8.73c-2.42 2.5-5.25 4.49-8.5 5.96z" fill="#000"/></g></svg>