<svg fill="none" height="40" viewBox="0 0 136 40" width="136" xmlns="http://www.w3.org/2000/svg"><g fill="#2a2927"><path d="m.561401 29.978c.310212-.4888.709059-.9423.921769-1.4707 1.82139-4.5531 3.60733-9.1238 5.41542-13.6856.28806-.7266.62929-1.4355.95723-2.1797h4.00618c2.4108 5.9269 4.8482 11.9199 7.3564 18.0801h-4.2587c-.5185-1.2549-1.0326-2.5099-1.5688-3.8133h-7.1083c-.48748 1.2594-.95723 2.4659-1.52447 3.9366h-4.196729c0-.2862 0-.5768 0-.8674zm11.367099-6.517c-.8288-3.2144-1.4093-4.5574-2.38867-5.513-.64702 1.8054-1.28517 3.5932-1.96764 5.513z"/><path d="m66.8183 40v-40h3.0933v40z"/><path d="m30.519 23.1044c1.8258 2.5715 3.5852 5.0418 5.4553 7.675h-4.6753c-1.263-2.0828-2.5748-4.1656-3.7979-6.2968-.5628-.9819-1.232-1.3518-2.4817-.797v7.0762h-3.9308v-18.199c3.594.1453 7.1703-.3655 10.6978.4887 1.8303.4448 3.0446 2.0652 3.2218 3.9851.1994 2.1796-.3191 4.0466-2.4285 5.1607-.6293.3346-1.3117.5768-2.0651.9027zm-5.3977-2.6773c1.6574-.0792 3.1908-.044 4.6887-.251 1.3073-.1805 1.8612-1.07 1.7549-2.3337-.0931-1.1273-.7268-1.7526-2.0386-1.8098-1.4447-.0617-2.8982-.0132-4.405-.0132z"/></g><path d="m124.296 30.6341v-17.9084h11.274v3.2541h-6.811v3.5623h6.417v3.4258h-6.395v4.28h7.215v3.3862h-11.704z" fill="#858686"/><path d="m119.714 23.4214h-6.094v7.2127h-4.334v-17.9349h10.871v3.2805h-6.457v3.9454h6.009v3.4963z" fill="#858686"/><path d="m42.5996 15.8785h-5.9871v-3.1484h15.6524v3.2056h-5.7035v14.7997c-.7533.0484-1.3782.1012-2.0031.1233-.5805.0176-1.161 0-1.9587 0z" fill="#2a2927"/><path d="m90.1772 27.085h7.0463v3.6063h-11.305v-17.9921h4.2587z" fill="#858686"/><path d="m100.614 12.6244c.487-.0308.851-.0661 1.209-.0705.882-.0088 1.76 0 2.815 0v18.1154h-4.024z" fill="#858686"/></svg>